<svg xmlns="http://www.w3.org/2000/svg">
  <defs >
    <linearGradient gradientTransform="rotate(25)" id="bc5680ab-a57d-4c83-ac56-48a89b2ba812" x1="0%" y1="0%" x2="100%" y2="0%">
      <stop offset="0%" stop-color="#B4373D" stop-opacity="1"></stop>
      <stop offset="100%" stop-color="#B23ACB" stop-opacity="1"></stop>
    </linearGradient>
  </defs>
  <g stroke="none" fill="url(#bc5680ab-a57d-4c83-ac56-48a89b2ba812)" transform="matrix(0.841664925721751,0,0,0.841664925721751,107.91759331114936,79.98086692932372)">
    <path d="M90.948 30.069l.014-.034.009-.025.01-.03a.414.414 0 0 0 .01-.033l.007-.025.013-.057.004-.021a.613.613 0 0 0 .007-.042l.003-.024.004-.043.002-.02.002-.059v-.007l-.001-.018-.001-.037-.002-.029-.003-.034-.007-.051-.005-.029-.007-.034-.006-.025-.009-.034-.008-.027a1.016 1.016 0 0 0-.017-.051l-.011-.031-.011-.027c-.005-.011-.009-.022-.015-.032l-.011-.023a1.355 1.355 0 0 0-.028-.053l-.003-.006-.03-.049-.009-.014-.028-.04-.009-.012a1.09 1.09 0 0 0-.083-.097l-.012-.012-.033-.032-.016-.015a.46.46 0 0 0-.034-.028l-.016-.013-.048-.035-.024-.016-.02-.013-.01-.006-.012-.008L50.547 5.149a1.077 1.077 0 0 0-1.094 0L9.496 28.719l-.012.008-.01.006-.02.013-.024.016-.048.035-.016.013-.034.028-.016.015a.498.498 0 0 0-.033.032l-.012.012a.946.946 0 0 0-.083.097l-.009.012-.029.04-.01.014-.03.049-.003.006-.028.053-.011.023-.014.032-.011.027a1.016 1.016 0 0 0-.028.081l-.008.026-.01.033-.006.025-.007.034-.005.029a.816.816 0 0 0-.01.086l-.002.029-.001.037-.001.018v.007l.002.059.002.02.004.043.003.024a.613.613 0 0 0 .007.042l.004.021.013.057.007.025.01.034.01.03.009.025a.488.488 0 0 0 .019.046c.02.045.042.088.068.13l.004.006.015.024 39.941 64.251a1.082 1.082 0 0 0 1.832-.001L90.857 30.24l.001-.001.015-.024.004-.006c.026-.042.048-.085.068-.13l.003-.01zM50 7.328l37.837 22.319L50 51.967l-37.836-22.32L50 7.328zM13.278 32.804l36.008 21.241v36.682L13.278 32.804zm37.445 57.921v-36.68L86.73 32.804 50.723 90.725z"></path>
  </g>
</svg>