<svg data-v-423bf9ae="" xmlns="http://www.w3.org/2000/svg" viewBox="0 0 514 90" class="iconLeft"><!----><!----><!----><g data-v-423bf9ae="" id="f2c0841a-72ee-4baa-8719-b6b99a4c81c2" fill="#FFFFFF" transform="matrix(5.7915059834320255,0,0,5.7915059834320255,93.78812671425598,14.999999523162842)"><path d="M5.22 0.57L1.43 0.57L1.43 10.22L2.35 10.22L2.35 6.45L5.18 6.45C7.20 6.45 7.98 5.01 7.98 3.51C7.98 2.03 7.20 0.57 5.22 0.57ZM5.14 5.59L2.35 5.59L2.35 1.44L5.21 1.44C6.54 1.44 7.06 2.48 7.06 3.51C7.06 4.56 6.52 5.59 5.14 5.59ZM14.84 3.68L14.84 4.94C14.35 4.06 13.34 3.54 12.24 3.54C10.40 3.54 8.92 4.96 8.92 6.94C8.92 8.93 10.42 10.36 12.24 10.36C13.33 10.36 14.35 9.84 14.84 8.95L14.84 10.22L15.74 10.22L15.74 3.68ZM12.31 9.51C10.93 9.51 9.81 8.39 9.81 6.93C9.81 5.49 10.93 4.40 12.31 4.40C13.61 4.40 14.84 5.39 14.84 6.97C14.84 8.48 13.66 9.51 12.31 9.51ZM17.98 10.22L18.87 10.22L18.87 0L17.98 0ZM26.59 3.68L26.59 4.94C26.10 4.06 25.09 3.54 23.98 3.54C22.15 3.54 20.66 4.96 20.66 6.94C20.66 8.93 22.16 10.36 23.98 10.36C25.07 10.36 26.10 9.84 26.59 8.95L26.59 10.22L27.48 10.22L27.48 3.68ZM24.05 9.51C22.68 9.51 21.56 8.39 21.56 6.93C21.56 5.49 22.68 4.40 24.05 4.40C25.35 4.40 26.59 5.39 26.59 6.97C26.59 8.48 25.41 9.51 24.05 9.51ZM32.89 3.54C32.07 3.54 31.01 3.92 30.62 4.86L30.62 3.68L29.72 3.68L29.72 10.22L30.62 10.22L30.62 6.59C30.65 5.01 31.75 4.42 32.80 4.42C33.85 4.42 34.65 5.19 34.65 6.45L34.65 10.22L35.55 10.22L35.55 6.41C35.55 4.61 34.47 3.54 32.89 3.54ZM43.16 3.68L43.16 4.94C42.67 4.06 41.66 3.54 40.56 3.54C38.72 3.54 37.24 4.96 37.24 6.94C37.24 8.93 38.74 10.36 40.56 10.36C41.65 10.36 42.67 9.84 43.16 8.95L43.16 10.22L44.06 10.22L44.06 3.68ZM40.63 9.51C39.26 9.51 38.14 8.39 38.14 6.93C38.14 5.49 39.26 4.40 40.63 4.40C41.93 4.40 43.16 5.39 43.16 6.97C43.16 8.48 41.99 9.51 40.63 9.51ZM52.40 6.93C52.40 4.86 51.04 3.54 49.18 3.54C47.33 3.54 45.85 4.86 45.85 6.93C45.85 9.00 47.33 10.36 49.18 10.36C50.41 10.36 51.53 9.77 52.11 8.72L51.34 8.39C50.90 9.10 50.11 9.51 49.21 9.51C47.89 9.51 46.91 8.72 46.76 7.32L52.39 7.32C52.40 7.20 52.40 7.06 52.40 6.93ZM46.77 6.55C46.94 5.15 47.89 4.40 49.18 4.40C50.46 4.40 51.39 5.19 51.52 6.55ZM58.98 3.68L58.98 7.31C58.97 8.89 57.85 9.48 56.81 9.48C55.75 9.48 54.96 8.71 54.96 7.45L54.96 3.68L54.07 3.68L54.07 7.49C54.05 9.30 55.13 10.36 56.71 10.36C57.53 10.36 58.59 10.00 58.98 9.07L58.98 10.22L59.88 10.22L59.88 3.68ZM69.96 3.54C69.16 3.54 68.03 3.81 67.55 5.11C67.19 4.10 66.32 3.54 65.25 3.54C64.29 3.54 63.35 3.99 63.01 4.86L63.01 3.68L62.12 3.68L62.12 10.22L63.01 10.22L63.01 6.59C63.04 5.03 64.05 4.41 65.10 4.41C66.14 4.41 66.89 5.18 66.89 6.45L66.89 10.22L67.77 10.22L67.77 6.83L67.79 6.89C67.69 5.29 68.59 4.40 69.82 4.41C70.90 4.41 71.65 5.19 71.65 6.45L71.65 10.22L72.55 10.22L72.55 6.41C72.55 4.61 71.54 3.54 69.96 3.54Z"></path></g><defs data-v-423bf9ae=""><linearGradient data-v-423bf9ae="" gradientTransform="rotate(25)" id="dfc3162a-89d4-4fef-8b68-e828b6643db2" x1="0%" y1="0%" x2="100%" y2="0%"><stop data-v-423bf9ae="" offset="0%" style="stop-color: rgb(180, 55, 61); stop-opacity: 1;"></stop><stop data-v-423bf9ae="" offset="100%" style="stop-color: rgb(178, 58, 203); stop-opacity: 1;"></stop></linearGradient></defs><g data-v-423bf9ae="" id="c280da41-9b80-4b8c-b510-9bb54da549ca" transform="matrix(1.0000239907827921,0,0,1.0000239907827921,-8.03520372663354,-4.000119947896678)" stroke="none" fill="url(#dfc3162a-89d4-4fef-8b68-e828b6643db2)"><path d="M90.948 30.069l.014-.034.009-.025.01-.03a.414.414 0 0 0 .01-.033l.007-.025.013-.057.004-.021a.613.613 0 0 0 .007-.042l.003-.024.004-.043.002-.02.002-.059v-.007l-.001-.018-.001-.037-.002-.029-.003-.034-.007-.051-.005-.029-.007-.034-.006-.025-.009-.034-.008-.027a1.016 1.016 0 0 0-.017-.051l-.011-.031-.011-.027c-.005-.011-.009-.022-.015-.032l-.011-.023a1.355 1.355 0 0 0-.028-.053l-.003-.006-.03-.049-.009-.014-.028-.04-.009-.012a1.09 1.09 0 0 0-.083-.097l-.012-.012-.033-.032-.016-.015a.46.46 0 0 0-.034-.028l-.016-.013-.048-.035-.024-.016-.02-.013-.01-.006-.012-.008L50.547 5.149a1.077 1.077 0 0 0-1.094 0L9.496 28.719l-.012.008-.01.006-.02.013-.024.016-.048.035-.016.013-.034.028-.016.015a.498.498 0 0 0-.033.032l-.012.012a.946.946 0 0 0-.083.097l-.009.012-.029.04-.01.014-.03.049-.003.006-.028.053-.011.023-.014.032-.011.027a1.016 1.016 0 0 0-.028.081l-.008.026-.01.033-.006.025-.007.034-.005.029a.816.816 0 0 0-.01.086l-.002.029-.001.037-.001.018v.007l.002.059.002.02.004.043.003.024a.613.613 0 0 0 .007.042l.004.021.013.057.007.025.01.034.01.03.009.025a.488.488 0 0 0 .019.046c.02.045.042.088.068.13l.004.006.015.024 39.941 64.251a1.082 1.082 0 0 0 1.832-.001L90.857 30.24l.001-.001.015-.024.004-.006c.026-.042.048-.085.068-.13l.003-.01zM50 7.328l37.837 22.319L50 51.967l-37.836-22.32L50 7.328zM13.278 32.804l36.008 21.241v36.682L13.278 32.804zm37.445 57.921v-36.68L86.73 32.804 50.723 90.725z"></path></g><!----></svg>