<svg xmlns="http://www.w3.org/2000/svg"
  xmlns:xlink="http://www.w3.org/1999/xlink" version="1.1" x="0px" y="0px" viewBox="0 0 100 100" enable-background="new 0 0 100 100" xml:space="preserve">
  <path fill="#1e222a" d="M90.948,30.069c0.005-0.011,0.009-0.022,0.014-0.034c0.003-0.008,0.007-0.017,0.009-0.025c0.004-0.01,0.007-0.02,0.01-0.03  c0.004-0.011,0.007-0.022,0.01-0.033c0.002-0.008,0.005-0.017,0.007-0.025c0.005-0.019,0.009-0.038,0.013-0.057  c0.001-0.007,0.002-0.014,0.004-0.021c0.003-0.014,0.005-0.028,0.007-0.042c0.001-0.008,0.002-0.016,0.003-0.024  c0.002-0.014,0.003-0.029,0.004-0.043c0.001-0.007,0.001-0.013,0.002-0.02c0.001-0.02,0.002-0.04,0.002-0.059  c0-0.002,0-0.005,0-0.007c0-0.006,0-0.012-0.001-0.018c0-0.012-0.001-0.025-0.001-0.037c0-0.01-0.001-0.019-0.002-0.029  c-0.001-0.011-0.002-0.023-0.003-0.034c-0.002-0.017-0.004-0.034-0.007-0.051c-0.001-0.01-0.003-0.019-0.005-0.029  c-0.002-0.011-0.005-0.023-0.007-0.034c-0.002-0.008-0.004-0.017-0.006-0.025c-0.003-0.011-0.006-0.023-0.009-0.034  c-0.003-0.009-0.005-0.018-0.008-0.027c-0.005-0.017-0.011-0.034-0.017-0.051c-0.004-0.01-0.007-0.02-0.011-0.031  c-0.004-0.009-0.007-0.018-0.011-0.027c-0.005-0.011-0.009-0.022-0.015-0.032c-0.004-0.008-0.007-0.015-0.011-0.023  c-0.009-0.018-0.018-0.035-0.028-0.053c-0.001-0.002-0.002-0.004-0.003-0.006c-0.009-0.016-0.02-0.033-0.03-0.049  c-0.003-0.005-0.006-0.009-0.009-0.014c-0.009-0.014-0.019-0.027-0.028-0.04c-0.003-0.004-0.006-0.008-0.009-0.012  c-0.026-0.034-0.053-0.066-0.083-0.097c-0.004-0.004-0.008-0.008-0.012-0.012c-0.011-0.011-0.022-0.021-0.033-0.032  c-0.005-0.005-0.011-0.01-0.016-0.015c-0.011-0.01-0.022-0.019-0.034-0.028c-0.005-0.004-0.011-0.009-0.016-0.013  c-0.016-0.012-0.032-0.024-0.048-0.035c-0.008-0.006-0.016-0.011-0.024-0.016c-0.007-0.004-0.013-0.009-0.02-0.013  c-0.003-0.002-0.007-0.004-0.01-0.006c-0.004-0.002-0.008-0.005-0.012-0.008L50.547,5.149c-0.337-0.199-0.758-0.199-1.094,0  L9.496,28.719c-0.004,0.002-0.008,0.005-0.012,0.008c-0.003,0.002-0.007,0.004-0.01,0.006c-0.007,0.004-0.013,0.009-0.02,0.013  c-0.008,0.005-0.016,0.01-0.024,0.016c-0.016,0.011-0.032,0.023-0.048,0.035c-0.005,0.004-0.011,0.009-0.016,0.013  c-0.012,0.009-0.023,0.019-0.034,0.028c-0.005,0.005-0.011,0.01-0.016,0.015c-0.011,0.01-0.023,0.021-0.033,0.032  c-0.004,0.004-0.008,0.008-0.012,0.012c-0.03,0.031-0.058,0.063-0.083,0.097c-0.003,0.004-0.006,0.008-0.009,0.012  c-0.01,0.013-0.019,0.027-0.029,0.04C9.146,29.05,9.143,29.055,9.14,29.06c-0.01,0.016-0.02,0.032-0.03,0.049  c-0.001,0.002-0.002,0.004-0.003,0.006c-0.01,0.017-0.019,0.035-0.028,0.053c-0.004,0.008-0.007,0.015-0.011,0.023  c-0.005,0.011-0.01,0.021-0.014,0.032c-0.004,0.009-0.008,0.018-0.011,0.027c-0.004,0.01-0.008,0.02-0.011,0.03  c-0.006,0.017-0.012,0.034-0.017,0.051c-0.003,0.009-0.005,0.018-0.008,0.026C9.003,29.367,9,29.379,8.997,29.39  c-0.002,0.008-0.004,0.017-0.006,0.025c-0.002,0.011-0.005,0.023-0.007,0.034c-0.002,0.01-0.003,0.019-0.005,0.029  c-0.003,0.017-0.005,0.034-0.007,0.052c-0.001,0.011-0.002,0.022-0.003,0.034c-0.001,0.01-0.001,0.019-0.002,0.029  c-0.001,0.012-0.001,0.025-0.001,0.037c0,0.006-0.001,0.012-0.001,0.018c0,0.002,0,0.005,0,0.007c0,0.02,0.001,0.039,0.002,0.059  c0,0.007,0.001,0.013,0.002,0.02c0.001,0.014,0.003,0.029,0.004,0.043c0.001,0.008,0.002,0.016,0.003,0.024  c0.002,0.014,0.004,0.028,0.007,0.042c0.001,0.007,0.002,0.014,0.004,0.021c0.004,0.019,0.008,0.038,0.013,0.057  c0.002,0.008,0.005,0.017,0.007,0.025c0.003,0.011,0.007,0.022,0.01,0.034c0.003,0.01,0.007,0.02,0.01,0.03  c0.003,0.008,0.006,0.017,0.009,0.025c0.004,0.011,0.009,0.023,0.014,0.034c0.002,0.004,0.004,0.008,0.005,0.012  c0.02,0.045,0.042,0.088,0.068,0.13c0.001,0.002,0.002,0.004,0.004,0.006l0.015,0.024l0,0l39.941,64.251  C49.281,94.808,49.627,95,50,95s0.718-0.192,0.915-0.509l39.942-64.251l0.001-0.001l0.015-0.024  c0.001-0.002,0.002-0.004,0.004-0.006c0.026-0.042,0.048-0.085,0.068-0.13C90.945,30.076,90.947,30.073,90.948,30.069z M50,7.328  l37.837,22.319L50,51.967l-37.836-22.32L50,7.328z M13.278,32.804l36.008,21.241v36.682L13.278,32.804z M50.723,90.725V54.045  L86.73,32.804L50.723,90.725z"/>
</svg>